<svg width="34" height="34" viewBox="0 0 34 34" fill="none" xmlns="http://www.w3.org/2000/svg">
<g clip-path="url(#clip0_39_198)">
<path d="M0.789853 34C0.598935 34 0.413206 33.9245 0.275465 33.7852C0.0938856 33.6016 0.0238479 33.3349 0.0920698 33.0856L2.30241 25.0141C0.926297 22.5257 0.200758 19.7107 0.201796 16.8532C0.205687 7.5602 7.76821 0 17.0604 0C21.5675 0.0018158 25.8024 1.75743 28.9855 4.94286C32.1681 8.12854 33.92 12.3632 33.9187 16.8667C33.9146 26.1599 26.3521 33.7206 17.0604 33.7206C17.0604 33.7206 17.0534 33.7206 17.0531 33.7206C14.339 33.7196 11.6483 33.0581 9.25249 31.8052L0.973248 33.9764C0.912549 33.9922 0.850812 34 0.789853 34Z" fill="#1D2F8E"/>
<path d="M0.789917 33.2766L3.07886 24.918C1.66695 22.4716 0.924286 19.6966 0.925324 16.8536C0.928955 7.95956 8.16673 0.723633 17.0605 0.723633C21.3764 0.725449 25.4274 2.40532 28.4738 5.45429C31.52 8.50326 33.197 12.5561 33.1954 16.8665C33.1915 25.7603 25.9527 32.9972 17.0605 32.9972C17.06 32.9972 17.0608 32.9972 17.0605 32.9972H17.0535C14.3532 32.9962 11.7 32.3189 9.34336 31.0336L0.789917 33.2766ZM9.73947 28.1136L10.2295 28.4038C12.2881 29.6256 14.6483 30.2717 17.0553 30.273H17.0605C24.4518 30.273 30.4678 24.2581 30.471 16.8655C30.4723 13.2829 29.0788 9.91413 26.5468 7.38006C24.0145 4.846 20.6477 3.44965 17.0654 3.4481C9.66813 3.4481 3.65239 9.46226 3.64954 16.8546C3.6485 19.3879 4.35718 21.8548 5.69984 23.9896L6.0189 24.497L4.66379 29.4443L9.73947 28.1136Z" fill="#1D2F8E"/>
<path d="M1.35095 32.7133L3.56077 24.6437C2.19737 22.2821 1.48065 19.6028 1.48143 16.8586C1.4848 8.27248 8.47224 1.28711 17.0576 1.28711C21.2246 1.28893 25.1355 2.91069 28.0758 5.8541C31.0169 8.7975 32.6355 12.71 32.634 16.8708C32.6303 25.4572 25.6426 32.4433 17.0584 32.4433C17.0576 32.4433 17.0586 32.4433 17.0584 32.4433H17.0513C14.4446 32.4423 11.8831 31.7881 9.60815 30.5481L1.35095 32.7133Z" fill="#1E2F8F"/>
<path d="M0.789917 33.2766L3.07886 24.918C1.66695 22.4716 0.924286 19.6966 0.925324 16.8536C0.928955 7.95956 8.16673 0.723633 17.0605 0.723633C21.3764 0.725449 25.4274 2.40532 28.4738 5.45429C31.52 8.50326 33.197 12.5561 33.1954 16.8665C33.1915 25.7603 25.9527 32.9972 17.0605 32.9972C17.06 32.9972 17.0608 32.9972 17.0605 32.9972H17.0535C14.3532 32.9962 11.7 32.3189 9.34336 31.0336L0.789917 33.2766ZM9.73947 28.1136L10.2295 28.4038C12.2881 29.6256 14.6483 30.2717 17.0553 30.273H17.0605C24.4518 30.273 30.4678 24.2581 30.471 16.8655C30.4723 13.2829 29.0788 9.91413 26.5468 7.38006C24.0145 4.846 20.6477 3.44965 17.0654 3.4481C9.66813 3.4481 3.65239 9.46226 3.64954 16.8546C3.6485 19.3879 4.35718 21.8548 5.69984 23.9896L6.0189 24.497L4.66379 29.4443L9.73947 28.1136Z" fill="white"/>
<path fill-rule="evenodd" clip-rule="evenodd" d="M13.0279 10.1104C12.726 9.43906 12.4079 9.42557 12.1205 9.4139C11.8855 9.40378 11.6165 9.4043 11.348 9.4043C11.0793 9.4043 10.6425 9.50547 10.2731 9.90884C9.90344 10.3122 8.86169 11.2876 8.86169 13.2712C8.86169 15.2551 10.3065 17.1718 10.5081 17.4411C10.7097 17.7101 13.2972 21.9108 17.3949 23.5269C20.8005 24.87 21.4934 24.6028 22.2327 24.5357C22.972 24.4685 24.6178 23.5603 24.9538 22.619C25.2899 21.6776 25.2899 20.8708 25.189 20.702C25.0881 20.5341 24.8194 20.4332 24.4163 20.2317C24.0132 20.0301 22.0311 19.0545 21.6615 18.9202C21.2918 18.7855 21.0231 18.7186 20.7544 19.1222C20.4854 19.5253 19.7134 20.4332 19.4781 20.702C19.2428 20.9715 19.0076 21.0052 18.6045 20.8034C18.2013 20.6013 16.9028 20.1759 15.3625 18.8024C14.1641 17.7339 13.3547 16.4141 13.1195 16.0105C12.8845 15.6074 13.1156 15.4081 13.2966 15.1879C13.6227 14.7913 14.1698 14.0782 14.3041 13.8094C14.4385 13.5402 14.3713 13.3049 14.2707 13.1031C14.1698 12.9015 13.3861 10.9078 13.0279 10.1104Z" fill="white"/>
</g>
<defs>
<clipPath id="clip0_39_198">
<rect width="34" height="34" fill="white"/>
</clipPath>
</defs>
</svg>
